<svg width="512" height="512" viewBox="0 0 1085 1085" fill="none" xmlns="http://www.w3.org/2000/svg">
  <defs>
    <linearGradient id="bg" x1="0" y1="0" x2="1085" y2="1085" gradientUnits="userSpaceOnUse">
      <stop offset="0%" stop-color="#6366f1"/>
      <stop offset="100%" stop-color="#7c3aed"/>
    </linearGradient>
  </defs>
  <rect width="1085" height="1085" rx="240" fill="url(#bg)"/>
  <path d="M861.623 179.807C831.356 165.348 759.498 149.943 684.785 185.792C671.573 192.132 655.772 205.037 640.423 218.751C623.923 233.493 604.178 252.676 582.234 274.958C538.29 319.58 484.218 377.96 427.304 441.101C313.408 567.456 187.081 714.045 105.5 810.493C93.1183 825.131 93.969 846.803 107.46 860.425H107.461C120.953 874.047 142.616 875.105 157.372 862.864C198.802 828.497 295.993 750.353 356.618 709.608C387.309 688.982 409.373 675.273 424.297 666.585C431.767 662.236 437.293 659.238 441.104 657.296L441.104 657.295C443.498 656.075 446.353 655.097 449.621 654.324C660.581 604.477 797.876 660.822 845.797 695.816C849.351 698.734 852.773 701.485 856.043 704.053C871.78 716.406 894.488 714.014 907.304 698.649L907.894 697.923C920.06 682.575 918.163 660.31 903.421 647.252L902.005 646.012C898.752 643.198 895.206 640.353 891.382 637.495C862.071 613.296 821.804 575.46 786.23 532.286C745.292 482.601 714.923 431.03 708.942 387.804C703.936 351.612 721.151 322.162 752.431 297.288C784.246 271.989 825.868 255.863 854.149 249.208L854.862 249.033C869.783 245.21 880.807 232.519 882.462 217.153L882.461 217.152C884.141 201.545 875.789 186.574 861.624 179.807H861.623ZM646.005 315.746C635.951 339.673 631.37 367.073 635.641 397.943C644.045 458.69 681.564 519.88 721.881 570.414C642.921 556.006 542.816 555.17 424.715 584.209C424.062 584.369 423.407 584.548 422.752 584.748L422.098 584.954C414.521 587.42 402.467 593.667 387.067 602.632C384.179 604.313 381.086 606.145 377.78 608.132C412.712 568.398 448.067 528.591 482.27 490.646C538.909 427.811 592.141 370.361 634.959 326.883C638.733 323.05 642.417 319.336 646.005 315.746Z" fill="white" fill-opacity="0.95"/>
</svg>
